<mxfile host="app.diagrams.net" agent="Mozilla/5.0 (Windows NT 10.0; Win64; x64) AppleWebKit/537.36 (KHTML, like Gecko) Chrome/131.0.0.0 Safari/537.36" version="24.9.1">
  <diagram id="C5RBs43oDa-KdzZeNtuy" name="Page-1">
    <mxGraphModel dx="1000" dy="580" grid="1" gridSize="10" guides="1" tooltips="1" connect="1" arrows="1" fold="1" page="1" pageScale="1" pageWidth="827" pageHeight="1169" math="0" shadow="0">
      <root>
        <mxCell id="WIyWlLk6GJQsqaUBKTNV-0" />
        <mxCell id="WIyWlLk6GJQsqaUBKTNV-1" parent="WIyWlLk6GJQsqaUBKTNV-0" />
        <mxCell id="KhBZIJYxAz-S-ak0VHHr-0" value="Selesai" style="strokeWidth=2;html=1;shape=mxgraph.flowchart.terminator;whiteSpace=wrap;" vertex="1" parent="WIyWlLk6GJQsqaUBKTNV-1">
          <mxGeometry x="314" y="500" width="100" height="60" as="geometry" />
        </mxCell>
        <mxCell id="KhBZIJYxAz-S-ak0VHHr-5" style="edgeStyle=orthogonalEdgeStyle;rounded=0;orthogonalLoop=1;jettySize=auto;html=1;entryX=0.5;entryY=0;entryDx=0;entryDy=0;" edge="1" parent="WIyWlLk6GJQsqaUBKTNV-1" source="KhBZIJYxAz-S-ak0VHHr-1" target="KhBZIJYxAz-S-ak0VHHr-2">
          <mxGeometry relative="1" as="geometry" />
        </mxCell>
        <mxCell id="KhBZIJYxAz-S-ak0VHHr-1" value="Mulai" style="strokeWidth=2;html=1;shape=mxgraph.flowchart.terminator;whiteSpace=wrap;" vertex="1" parent="WIyWlLk6GJQsqaUBKTNV-1">
          <mxGeometry x="314" y="120" width="100" height="60" as="geometry" />
        </mxCell>
        <mxCell id="KhBZIJYxAz-S-ak0VHHr-6" style="edgeStyle=orthogonalEdgeStyle;rounded=0;orthogonalLoop=1;jettySize=auto;html=1;entryX=0.5;entryY=0;entryDx=0;entryDy=0;" edge="1" parent="WIyWlLk6GJQsqaUBKTNV-1" source="KhBZIJYxAz-S-ak0VHHr-2" target="KhBZIJYxAz-S-ak0VHHr-3">
          <mxGeometry relative="1" as="geometry" />
        </mxCell>
        <mxCell id="KhBZIJYxAz-S-ak0VHHr-2" value="Deklarasi Variabel&lt;br&gt;dan&lt;br&gt;Type Data" style="shape=hexagon;perimeter=hexagonPerimeter2;whiteSpace=wrap;html=1;fixedSize=1;" vertex="1" parent="WIyWlLk6GJQsqaUBKTNV-1">
          <mxGeometry x="304" y="220" width="120" height="80" as="geometry" />
        </mxCell>
        <mxCell id="KhBZIJYxAz-S-ak0VHHr-9" style="edgeStyle=orthogonalEdgeStyle;rounded=0;orthogonalLoop=1;jettySize=auto;html=1;entryX=0;entryY=0.5;entryDx=0;entryDy=0;" edge="1" parent="WIyWlLk6GJQsqaUBKTNV-1" source="KhBZIJYxAz-S-ak0VHHr-3" target="KhBZIJYxAz-S-ak0VHHr-4">
          <mxGeometry relative="1" as="geometry" />
        </mxCell>
        <mxCell id="KhBZIJYxAz-S-ak0VHHr-3" value="i &amp;lt;= 10" style="rhombus;whiteSpace=wrap;html=1;" vertex="1" parent="WIyWlLk6GJQsqaUBKTNV-1">
          <mxGeometry x="304" y="340" width="120" height="120" as="geometry" />
        </mxCell>
        <mxCell id="KhBZIJYxAz-S-ak0VHHr-11" style="edgeStyle=orthogonalEdgeStyle;rounded=0;orthogonalLoop=1;jettySize=auto;html=1;entryX=0.5;entryY=0;entryDx=0;entryDy=0;" edge="1" parent="WIyWlLk6GJQsqaUBKTNV-1" source="KhBZIJYxAz-S-ak0VHHr-4" target="KhBZIJYxAz-S-ak0VHHr-3">
          <mxGeometry relative="1" as="geometry">
            <Array as="points">
              <mxPoint x="540" y="320" />
              <mxPoint x="364" y="320" />
            </Array>
          </mxGeometry>
        </mxCell>
        <mxCell id="KhBZIJYxAz-S-ak0VHHr-4" value="print(i)" style="shape=parallelogram;perimeter=parallelogramPerimeter;whiteSpace=wrap;html=1;fixedSize=1;" vertex="1" parent="WIyWlLk6GJQsqaUBKTNV-1">
          <mxGeometry x="470" y="370" width="120" height="60" as="geometry" />
        </mxCell>
        <mxCell id="KhBZIJYxAz-S-ak0VHHr-12" style="edgeStyle=orthogonalEdgeStyle;rounded=0;orthogonalLoop=1;jettySize=auto;html=1;entryX=0.5;entryY=0;entryDx=0;entryDy=0;entryPerimeter=0;" edge="1" parent="WIyWlLk6GJQsqaUBKTNV-1" source="KhBZIJYxAz-S-ak0VHHr-3" target="KhBZIJYxAz-S-ak0VHHr-0">
          <mxGeometry relative="1" as="geometry" />
        </mxCell>
        <mxCell id="KhBZIJYxAz-S-ak0VHHr-13" value="Tidak" style="text;html=1;align=center;verticalAlign=middle;whiteSpace=wrap;rounded=0;" vertex="1" parent="WIyWlLk6GJQsqaUBKTNV-1">
          <mxGeometry x="424" y="370" width="60" height="30" as="geometry" />
        </mxCell>
        <mxCell id="KhBZIJYxAz-S-ak0VHHr-14" value="Ya" style="text;html=1;align=center;verticalAlign=middle;whiteSpace=wrap;rounded=0;" vertex="1" parent="WIyWlLk6GJQsqaUBKTNV-1">
          <mxGeometry x="364" y="460" width="60" height="30" as="geometry" />
        </mxCell>
      </root>
    </mxGraphModel>
  </diagram>
</mxfile>
